<svg id="Layer_1" data-name="Layer 1" xmlns="http://www.w3.org/2000/svg" viewBox="0 0 234.87 257.81"><defs><style>.cls-1{fill:#58595b;}</style></defs><title>re-play</title><path class="cls-1" d="M256.09,154.68H156.67a7.5,7.5,0,0,0-7.33,5.86,45.57,45.57,0,0,1-33.79,34.32,3.93,3.93,0,0,1-4.81-3.84v-0.33a3.89,3.89,0,0,1,2.95-3.81,37.39,37.39,0,0,0,0-72.73,3.89,3.89,0,0,1-2.95-3.81h0a3.93,3.93,0,0,1,4.81-3.84,45.57,45.57,0,0,1,33.8,34.36,7.45,7.45,0,0,0,7.29,5.82h99.64c7.89,0,10.4-10.64,3.34-14.17l-219.9-110A7.48,7.48,0,0,0,28.9,29.25v110a7.48,7.48,0,0,0,7.48,7.48h17a7.45,7.45,0,0,0,7.29-5.82,45.57,45.57,0,0,1,33.8-34.36,3.93,3.93,0,0,1,4.81,3.84h0a3.89,3.89,0,0,1-2.95,3.81,37.39,37.39,0,0,0,0,72.73,3.89,3.89,0,0,1,2.95,3.81V191a3.93,3.93,0,0,1-4.81,3.84,45.57,45.57,0,0,1-33.79-34.32,7.5,7.5,0,0,0-7.33-5.86H36.42a7.52,7.52,0,0,0-7.52,7.52V272a7.52,7.52,0,0,0,10.89,6.73L259.46,168.93C266.56,165.38,264,154.68,256.09,154.68Z" transform="translate(-28.9 -21.76)"/></svg>