<svg id="Layer_1" data-name="Layer 1" xmlns="http://www.w3.org/2000/svg" viewBox="0 0 121.76 76.68"><defs><style>.cls-1{fill:#58595b;}</style></defs><title>plugin</title><path class="cls-1" d="M58.82,75a32.39,32.39,0,0,1,0-63,3.4,3.4,0,0,0,2.43-4.22A3.5,3.5,0,0,0,57,5.44,39.47,39.47,0,0,0,27.94,35.11a6.48,6.48,0,0,1-6.32,5.08h-13a3.41,3.41,0,0,0-3.41,3.43v0.1a3.41,3.41,0,0,0,3.41,3.4h13a6.49,6.49,0,0,1,6.35,5.07A39.47,39.47,0,0,0,57.21,81.92a3.4,3.4,0,0,0,4.16-3.33V78.31A3.37,3.37,0,0,0,58.82,75Z" transform="translate(-5.22 -5.33)"/><path class="cls-1" d="M123.52,40.19H111.08a6.48,6.48,0,0,1-6.32-5.08A39.47,39.47,0,0,0,75.7,5.44a3.5,3.5,0,0,0-4.25,2.36A3.4,3.4,0,0,0,73.88,12a32.39,32.39,0,0,1,0,63,3.37,3.37,0,0,0-2.55,3.3V78.6a3.4,3.4,0,0,0,4.16,3.33,39.47,39.47,0,0,0,29.27-29.73,6.5,6.5,0,0,1,6.35-5.07h12.41A3.46,3.46,0,1,0,123.52,40.19Z" transform="translate(-5.22 -5.33)"/><circle class="cls-1" cx="60.88" cy="38.3" r="21.22"/><path class="cls-1" d="M58.82,75a32.39,32.39,0,0,1,0-63,3.4,3.4,0,0,0,2.43-4.22A3.5,3.5,0,0,0,57,5.44,39.47,39.47,0,0,0,27.94,35.11a6.48,6.48,0,0,1-6.32,5.08h-13a3.41,3.41,0,0,0-3.41,3.43v0.1a3.41,3.41,0,0,0,3.41,3.4h13a6.49,6.49,0,0,1,6.35,5.07A39.47,39.47,0,0,0,57.21,81.92a3.4,3.4,0,0,0,4.16-3.33V78.31A3.37,3.37,0,0,0,58.82,75Z" transform="translate(-5.22 -5.33)"/><path class="cls-1" d="M123.52,40.19H111.08a6.48,6.48,0,0,1-6.32-5.08A39.47,39.47,0,0,0,75.7,5.44a3.5,3.5,0,0,0-4.25,2.36A3.4,3.4,0,0,0,73.88,12a32.39,32.39,0,0,1,0,63,3.37,3.37,0,0,0-2.55,3.3V78.6a3.4,3.4,0,0,0,4.16,3.33,39.47,39.47,0,0,0,29.27-29.73,6.5,6.5,0,0,1,6.35-5.07h12.41A3.46,3.46,0,1,0,123.52,40.19Z" transform="translate(-5.22 -5.33)"/><circle class="cls-1" cx="60.88" cy="38.3" r="21.22"/></svg>